<?xml version="1.0" encoding="UTF-8"?>
<svg version="1.1" xmlns="http://www.w3.org/2000/svg" width="512" height="512">
<path d="M0 0 C3.47488654 1.43951157 6.10927262 3.61940098 9 6 C10.05619188 6.82340272 11.11497548 7.64348753 12.17578125 8.4609375 C15.19403525 10.79694834 18.1844711 13.16610015 21.16943359 15.54443359 C24.10232058 17.87650511 27.05167183 20.18750464 30 22.5 C31.17197104 23.42045065 32.34384601 24.34102363 33.515625 25.26171875 C34.09376953 25.71595215 34.67191406 26.17018555 35.26757812 26.63818359 C36.96546138 27.97285 38.66253347 29.30854079 40.359375 30.64453125 C46.88985886 35.78426392 53.43749359 40.90120342 60 46 C67.68802752 51.97328002 75.34946369 57.97874457 83 64 C87.62 67.63 92.24 71.26 97 75 C97.33 60.81 97.66 46.62 98 32 C94.7 32 91.4 32 88 32 C84.49512817 28.49512817 84.61675304 27.85866082 84.6015625 23.125 C84.59769531 21.97515625 84.59382813 20.8253125 84.58984375 19.640625 C84.60724609 17.83851562 84.60724609 17.83851562 84.625 16 C84.61339844 14.79859375 84.60179687 13.5971875 84.58984375 12.359375 C84.59371094 11.20953125 84.59757812 10.0596875 84.6015625 8.875 C84.60494629 7.82054687 84.60833008 6.76609375 84.61181641 5.6796875 C85 3 85 3 86.09286499 1.35678101 C88.97821323 -0.69592405 91.39189233 -0.38155155 94.90234375 -0.38818359 C95.60022003 -0.39344055 96.29809631 -0.39869751 97.01712036 -0.40411377 C99.3241412 -0.41731846 101.63047213 -0.40857455 103.9375 -0.3984375 C105.54028455 -0.40045811 107.14306821 -0.40336945 108.74584961 -0.40713501 C112.1050695 -0.41155898 115.4640501 -0.40512513 118.82324219 -0.39111328 C123.13106839 -0.37402116 127.4383339 -0.38386198 131.74613953 -0.40183067 C135.05582918 -0.41266666 138.3653857 -0.40922307 141.67507935 -0.4014473 C143.26351996 -0.39944477 144.85197263 -0.40190643 146.44039917 -0.40888596 C148.65981096 -0.41649763 150.87831234 -0.40490145 153.09765625 -0.38818359 C154.36101807 -0.38579681 155.62437988 -0.38341003 156.92602539 -0.38095093 C160 -0 160 -0 161.86889648 1.33676147 C164.85200191 5.72328826 164.22109523 10.79498696 164.25 15.875 C164.2809375 17.22271484 164.2809375 17.22271484 164.3125 18.59765625 C164.34187372 23.5691592 164.24103657 26.95688873 161 31 C160 32 160 32 157.93359375 32.09765625 C157.10988281 32.08605469 156.28617187 32.07445312 155.4375 32.0625 C154.61121094 32.05347656 153.78492188 32.04445312 152.93359375 32.03515625 C152.29550781 32.02355469 151.65742188 32.01195312 151 32 C150.8057011 43.02311517 150.68791143 54.04420618 150.66578102 65.06908894 C150.65314083 70.18966557 150.61489778 75.30729643 150.51660156 80.42700195 C150.42256434 85.37527065 150.39779665 90.31963145 150.41953659 95.26869774 C150.41591742 97.14938155 150.38800618 99.03019164 150.33458328 100.91012001 C149.80445383 110.85356841 149.80445383 110.85356841 153.33727264 119.82827377 C156.56586232 123.08689589 160.21144007 125.51340992 164.1431427 127.8414011 C167.29107798 129.805577 170.12569125 132.16139043 173 134.5 C173.65258789 135.01264404 174.30517578 135.52528809 174.97753906 136.0534668 C177.77256674 138.24911632 180.5667691 140.44580216 183.359375 142.64453125 C183.91689453 143.08313477 184.47441406 143.52173828 185.04882812 143.97363281 C186.1835758 144.8667092 187.31769025 145.76059075 188.45117188 146.65527344 C191.83520772 149.32062609 195.24254306 151.9517155 198.671875 154.55859375 C199.87312012 155.47741333 199.87312012 155.47741333 201.09863281 156.41479492 C202.65573689 157.60478591 204.21733839 158.78892385 205.78417969 159.96606445 C216.73911714 168.3634623 216.73911714 168.3634623 218.91015625 174.625 C219.26671105 180.18359798 218.9859115 184.08769399 216 189 C211.79628333 193.30433755 208.42463695 195.18516856 202.4375 195.4375 C201.44621094 195.49808594 200.45492188 195.55867187 199.43359375 195.62109375 C196 195 196 195 187 189 C187 238.5 187 288 187 339 C199.375 345.93 199.375 345.93 212 353 C220.4375 357.9375 220.4375 357.9375 224.453125 360.3203125 C229.05616642 363.04486068 233.69143023 365.71244619 238.32788086 368.37963867 C242.78791962 370.94559513 247.24283721 373.52037867 251.69775391 376.09521484 C253.88035366 377.35417117 256.06489506 378.60976796 258.25146484 379.86181641 C261.29802275 381.60706893 264.33714286 383.36465823 267.375 385.125 C268.28983154 385.64489502 269.20466309 386.16479004 270.1472168 386.70043945 C275.35695276 389.73817046 279.22977614 392.45955228 282 398 C283.66197093 408.53986903 279.66733918 415.63348968 274.375 424.25 C273.65266087 425.47521702 272.93259392 426.70177657 272.21484375 427.9296875 C261.63755651 445.86301097 261.63755651 445.86301097 256 448 C246.93084727 449.351475 240.83979442 447.12886838 233.25 442.375 C231.79267456 441.50669556 231.79267456 441.50669556 230.3059082 440.62084961 C228.25012146 439.39487647 226.20047339 438.15855756 224.15673828 436.91259766 C219.90966246 434.33938869 215.61188189 431.85776087 211.31347656 429.37158203 C208.34356449 427.65281848 205.37893022 425.92553757 202.41796875 424.19140625 C201.20790161 423.48286499 201.20790161 423.48286499 199.97338867 422.76000977 C195.63707473 420.19325657 191.32093404 417.59256043 187 415 C186.67 436.45 186.34 457.9 186 480 C195.57 480 205.14 480 215 480 C218.50487183 483.50487183 218.38324696 484.14133918 218.3984375 488.875 C218.40230469 490.02484375 218.40617187 491.1746875 218.41015625 492.359375 C218.39275391 494.16148437 218.39275391 494.16148437 218.375 496 C218.38660156 497.20140625 218.39820313 498.4028125 218.41015625 499.640625 C218.40628906 500.79046875 218.40242188 501.9403125 218.3984375 503.125 C218.39505371 504.17945313 218.39166992 505.23390625 218.38818359 506.3203125 C218 509 218 509 216.92971611 510.64371067 C214.03585379 512.67764434 211.14647644 512.41312195 207.73635864 512.38031673 C206.61312277 512.38730661 206.61312277 512.38730661 205.46719527 512.3944377 C202.93775361 512.40646516 200.40884144 512.39696277 197.87939453 512.38768005 C196.05577834 512.39184958 194.23216473 512.39732499 192.40855598 512.40399987 C187.381579 512.41852309 182.35476499 512.4141884 177.32777882 512.40683305 C171.91257476 512.40212064 166.49740695 512.41459404 161.08221436 512.42485046 C150.46760795 512.44208139 139.85306062 512.44286965 129.23844385 512.43763756 C120.61486872 512.43360284 111.99131111 512.43503109 103.36773682 512.44038582 C101.52958127 512.44150845 101.52958127 512.44150845 99.65429127 512.44265376 C97.16515906 512.44418517 94.67602686 512.44572352 92.18689466 512.44726873 C68.82379083 512.46100914 45.46072046 512.45554512 22.09761739 512.44408352 C0.70206498 512.43393795 -20.69339914 512.44709461 -42.08893847 512.47101771 C-64.03502779 512.49537237 -85.98107677 512.50502564 -107.92717934 512.49836498 C-120.2574477 512.49486486 -132.58764953 512.49715701 -144.91790771 512.51461601 C-155.41367144 512.52929258 -165.90932179 512.53003314 -176.40508318 512.5125451 C-181.76440191 512.50399538 -187.12351775 512.50198184 -192.48282623 512.51719666 C-197.3829171 512.53093607 -202.28262919 512.52642055 -207.18269753 512.50695742 C-208.96124859 512.50316382 -210.73982922 512.50621477 -212.51835418 512.51656907 C-214.92482111 512.52958971 -217.32995135 512.51829148 -219.73635864 512.50057125 C-220.43674074 512.51022176 -221.13712285 512.51987227 -221.85872865 512.52981523 C-225.03776914 512.48131096 -226.60005625 512.38739657 -228.92971611 510.13082367 C-230.27743824 507.44764938 -230.38785681 505.49886848 -230.3984375 502.5 C-230.40423828 500.9221875 -230.40423828 500.9221875 -230.41015625 499.3125 C-230.39855469 498.219375 -230.38695312 497.12625 -230.375 496 C-230.38660156 494.906875 -230.39820313 493.81375 -230.41015625 492.6875 C-230.40628906 491.635625 -230.40242187 490.58375 -230.3984375 489.5 C-230.39505371 488.5409375 -230.39166992 487.581875 -230.38818359 486.59375 C-230 484 -230 484 -227 480 C-217.43 480 -207.86 480 -198 480 C-198 456.24 -198 432.48 -198 408 C-206.25 408 -214.5 408 -223 408 C-227.89583333 403.10416667 -227.89583333 403.10416667 -228 398 C-225.86956522 393.43478261 -225.86956522 393.43478261 -223 392 C-221.1136088 391.915085 -219.22421485 391.892807 -217.3359375 391.90234375 C-216.21445313 391.90556641 -215.09296875 391.90878906 -213.9375 391.91210938 C-212.1740625 391.92467773 -212.1740625 391.92467773 -210.375 391.9375 C-209.19164062 391.94201172 -208.00828125 391.94652344 -206.7890625 391.95117188 C-203.85932493 391.96298533 -200.92968728 391.97945742 -198 392 C-197.47656076 382.31586122 -197.16804131 372.63442763 -197.0625 362.9375 C-197.05078325 361.87849676 -197.05078325 361.87849676 -197.0388298 360.79809952 C-196.33553821 339.10655823 -196.33553821 339.10655823 -205.71812439 320.41822815 C-209.96653072 316.26542729 -214.88019149 313.04217993 -219.85400391 309.82373047 C-222 308 -222 308 -222.76708984 305.82080078 C-222.82940634 302.55321712 -222.17378485 300.28964141 -220.5 297.5 C-216.45881553 295.07528932 -214.67395547 295.01254462 -210 296 C-206.37 299.63 -202.74 303.26 -199 307 C-199 268.06 -199 229.12 -199 189 C-201.64 190.98 -204.28 192.96 -207 195 C-213.31329717 196.49063961 -218.35644971 196.44268863 -224 193 C-227.22086615 189.99492389 -229.82965508 186.86541655 -230.23828125 182.390625 C-230.26277344 181.35421875 -230.28726563 180.3178125 -230.3125 179.25 C-230.34988281 178.22390625 -230.38726562 177.1978125 -230.42578125 176.140625 C-229.45752047 168.99859135 -224.15129197 165.1152343 -218.8125 160.9375 C-218.11125 160.37804687 -217.41 159.81859375 -216.6875 159.2421875 C-210.97470526 154.70645171 -205.17430178 150.28445147 -199.36083984 145.87890625 C-194.47005176 142.16195198 -189.68374124 138.3368629 -184.9375 134.4375 C-179.07989282 129.62712711 -173.09707197 125.03392043 -167.00634766 120.52368164 C-161.47463396 116.40638042 -156.1248434 112.09136191 -150.79345703 107.71923828 C-146.18565593 103.94571556 -141.51550928 100.27175509 -136.78125 96.65869141 C-132.93246623 93.72127504 -129.11494363 90.74714387 -125.3125 87.75 C-119.89133229 83.4788233 -114.45050885 79.2336671 -109 75 C-101.87662651 69.46560019 -94.77303237 63.90691785 -87.68554688 58.32666016 C-84.20576922 55.58779692 -80.72265688 52.8531747 -77.24023438 50.11767578 C-74.37265935 47.86492288 -71.50577046 45.61131111 -68.640625 43.35546875 C-61.3427185 37.61174604 -54.02122757 31.89915962 -46.68603516 26.203125 C-42.56731442 23.00309438 -38.45854808 19.79128224 -34.36425781 16.56005859 C-11.56022115 -1.43605232 -11.56022115 -1.43605232 0 0 Z " fill="#DEF5FC" transform="translate(230,0)"/>
<path d="M0 0 C5.41915685 2.23598449 10.39860824 5.39067684 15.39697266 8.42578125 C19.03958516 10.62870429 22.7223388 12.76038315 26.40356445 14.89794922 C29.44762645 16.66721178 32.48561298 18.44661512 35.5234375 20.2265625 C42.32174949 24.19900743 49.15870964 28.10232747 56 32 C65.04022784 37.15416198 74.06691076 42.33066076 83.0625 47.5625 C84.00673828 48.10970703 84.95097656 48.65691406 85.92382812 49.22070312 C90.65946399 51.98231234 95.35806149 54.79990063 100.015625 57.69140625 C100.90668945 58.2438501 101.79775391 58.79629395 102.71582031 59.36547852 C106.30398 61.93310668 107.48953016 63.82822617 109 68 C109.76867939 72.64513779 109.5301317 76.58373317 107.375 80.8125 C104.68656232 84.42066635 103.12399732 86.15892977 99 88 C93.52298495 88.51392903 88.32121648 88.41467181 83 87 C82.65332275 87.61818604 82.30664551 88.23637207 81.94946289 88.87329102 C69.53985825 110.97834804 69.53985825 110.97834804 63.62915039 120.56860352 C62.11406648 123.04344611 60.92267051 125.23198846 60 128 C60.76828125 128.20238281 61.5365625 128.40476563 62.328125 128.61328125 C67.48959164 130.56255854 72.02092552 133.36607698 76.75 136.1875 C78.91367549 137.46419778 81.07775166 138.74021671 83.2421875 140.015625 C84.35819336 140.67498047 85.47419922 141.33433594 86.62402344 142.01367188 C92.0212633 145.18925356 97.44764 148.3137656 102.875 151.4375 C105.05991376 152.69658348 107.24480949 153.95569823 109.4296875 155.21484375 C111.05729004 156.15239502 111.05729004 156.15239502 112.71777344 157.10888672 C117.06623664 159.61433123 121.41334282 162.12212116 125.75976562 164.63110352 C127.90592554 165.86896172 130.05304951 167.10515009 132.20117188 168.33959961 C137.29842373 171.27129409 142.38441832 174.21891518 147.43914795 177.2232666 C149.83597362 178.64654384 152.23806208 180.0607998 154.640625 181.47436523 C156.34116069 182.47998889 158.03395799 183.49866177 159.7265625 184.51757812 C160.75265625 185.12021484 161.77875 185.72285156 162.8359375 186.34375 C164.19017822 187.15102539 164.19017822 187.15102539 165.57177734 187.97460938 C167.895728 189.18294757 167.895728 189.18294757 170.15869141 188.79101562 C172.81868743 187.64829657 174.79681334 185.85531509 177 184 C180.75074489 182.12462756 184.9122881 182.52297797 189 183 C192.2899736 184.15518344 195.1484578 185.82334373 198.125 187.625 C198.97336426 188.11427979 199.82172852 188.60355957 200.69580078 189.10766602 C203.47654991 190.71771925 206.23822489 192.35764542 209 194 C210.95206559 195.14373715 212.90520931 196.285636 214.859375 197.42578125 C217.88636365 199.1919775 220.91245494 200.95950664 223.93408203 202.73486328 C230.55757379 206.61716222 237.24216541 210.35722857 244 214 C254.77388287 219.81352452 265.32711714 225.97461919 275.88183594 232.17480469 C281.19868657 235.28698565 286.53701976 238.36174937 291.875 241.4375 C292.94041016 242.05262451 294.00582031 242.66774902 295.10351562 243.30151367 C300.19366928 246.23875883 305.28816725 249.16781627 310.39663696 252.07307434 C312.19273957 253.09511355 313.98744478 254.11956396 315.78173828 255.14477539 C318.03515376 256.43137633 320.29120173 257.71338142 322.55029297 258.98999023 C336.57077108 267.01039488 336.57077108 267.01039488 339 273 C340.91980891 283.41835185 336.60061004 290.74213205 331.375 299.25 C330.65266087 300.47521702 329.93259392 301.70177657 329.21484375 302.9296875 C318.63755651 320.86301097 318.63755651 320.86301097 313 323 C303.93084727 324.351475 297.83979442 322.12886838 290.25 317.375 C288.79267456 316.50669556 288.79267456 316.50669556 287.3059082 315.62084961 C285.25012146 314.39487647 283.20047339 313.15855756 281.15673828 311.91259766 C276.90966246 309.33938869 272.61188189 306.85776087 268.31347656 304.37158203 C265.34356449 302.65281848 262.37893022 300.92553757 259.41796875 299.19140625 C258.20790161 298.48286499 258.20790161 298.48286499 256.97338867 297.76000977 C252.63707473 295.19325657 248.32093404 292.59256043 244 290 C243.67 311.45 243.34 332.9 243 355 C252.57 355 262.14 355 272 355 C275.50487183 358.50487183 275.38324696 359.14133918 275.3984375 363.875 C275.40230469 365.02484375 275.40617187 366.1746875 275.41015625 367.359375 C275.39275391 369.16148437 275.39275391 369.16148437 275.375 371 C275.38660156 372.20140625 275.39820313 373.4028125 275.41015625 374.640625 C275.40628906 375.79046875 275.40242188 376.9403125 275.3984375 378.125 C275.39505371 379.17945313 275.39166992 380.23390625 275.38818359 381.3203125 C275 384 275 384 273.92971611 385.64371067 C271.03585379 387.67764434 268.14647644 387.41312195 264.73635864 387.38031673 C263.61312277 387.38730661 263.61312277 387.38730661 262.46719527 387.3944377 C259.93775361 387.40646516 257.40884144 387.39696277 254.87939453 387.38768005 C253.05577834 387.39184958 251.23216473 387.39732499 249.40855598 387.40399987 C244.381579 387.41852309 239.35476499 387.4141884 234.32777882 387.40683305 C228.91257476 387.40212064 223.49740695 387.41459404 218.08221436 387.42485046 C207.46760795 387.44208139 196.85306062 387.44286965 186.23844385 387.43763756 C177.61486872 387.43360284 168.99131111 387.43503109 160.36773682 387.44038582 C158.52958127 387.44150845 158.52958127 387.44150845 156.65429127 387.44265376 C154.16515906 387.44418517 151.67602686 387.44572352 149.18689466 387.44726873 C125.82379083 387.46100914 102.46072046 387.45554512 79.09761739 387.44408352 C57.70206498 387.43393795 36.30660086 387.44709461 14.91106153 387.47101771 C-7.03502779 387.49537237 -28.98107677 387.50502564 -50.92717934 387.49836498 C-63.2574477 387.49486486 -75.58764953 387.49715701 -87.91790771 387.51461601 C-98.41367144 387.52929258 -108.90932179 387.53003314 -119.40508318 387.5125451 C-124.76440191 387.50399538 -130.12351775 387.50198184 -135.48282623 387.51719666 C-140.3829171 387.53093607 -145.28262919 387.52642055 -150.18269753 387.50695742 C-151.96124859 387.50316382 -153.73982922 387.50621477 -155.51835418 387.51656907 C-157.92482111 387.52958971 -160.32995135 387.51829148 -162.73635864 387.50057125 C-163.43674074 387.51022176 -164.13712285 387.51987227 -164.85872865 387.52981523 C-168.03776914 387.48131096 -169.60005625 387.38739657 -171.92971611 385.13082367 C-173.27743824 382.44764938 -173.38785681 380.49886848 -173.3984375 377.5 C-173.40423828 375.9221875 -173.40423828 375.9221875 -173.41015625 374.3125 C-173.39855469 373.219375 -173.38695312 372.12625 -173.375 371 C-173.38660156 369.906875 -173.39820313 368.81375 -173.41015625 367.6875 C-173.40628906 366.635625 -173.40242187 365.58375 -173.3984375 364.5 C-173.39505371 363.5409375 -173.39166992 362.581875 -173.38818359 361.59375 C-172.91779783 358.45074473 -172.38333904 357.11948146 -170 355 C-166.99731445 354.54589844 -166.99731445 354.54589844 -163.36328125 354.609375 C-162.19321533 354.61936523 -161.02314941 354.62935547 -159.81762695 354.63964844 C-158.33093506 354.67606445 -156.84424316 354.71248047 -155.3125 354.75 C-150.589375 354.8325 -145.86625 354.915 -141 355 C-141 344.44 -141 333.88 -141 323 C-98.76 323 -56.52 323 -13 323 C-13 287.03 -13 251.06 -13 214 C-14.65 213.34 -16.3 212.68 -18 212 C-19.91655679 210.974849 -21.8150553 209.91556831 -23.69921875 208.83203125 C-25.36936035 207.87466064 -25.36936035 207.87466064 -27.07324219 206.89794922 C-28.27804914 206.20289367 -29.48280029 205.5077414 -30.6875 204.8125 C-31.94288672 204.09105251 -33.19842292 203.36986506 -34.45410156 202.64892578 C-37.68120292 200.7949706 -40.90596414 198.93698535 -44.13006592 197.07781982 C-45.90920925 196.05233129 -47.68904049 195.02805128 -49.46923828 194.00439453 C-54.8564643 190.90660074 -60.24011596 187.80288909 -65.6171875 184.6875 C-70.00635946 182.14533063 -74.40897488 179.62849392 -78.8203125 177.125 C-81.00527851 175.87512267 -83.19017685 174.62512704 -85.375 173.375 C-86.38594727 172.80700684 -87.39689453 172.23901367 -88.43847656 171.65380859 C-94.24758426 168.31302137 -98.78683833 165.639485 -101 159 C-101.68000726 154.21676711 -102.08006946 149.8456132 -99.578125 145.5703125 C-96.73707495 142.25575411 -94.10708236 139.62688311 -90 138 C-85.37408428 137.7797183 -81.52666809 138.06462233 -77 139 C-76.64921387 138.36835938 -76.29842773 137.73671875 -75.93701172 137.0859375 C-68.29014861 123.33297865 -60.51909961 109.66630949 -52.5625 96.08984375 C-48.86786698 89.78429596 -45.21145504 83.45706602 -41.5625 77.125 C-40.94793945 76.05862305 -40.33337891 74.99224609 -39.70019531 73.89355469 C-38.44647432 71.71769149 -37.19289485 69.54174674 -35.93945312 67.36572266 C-33.91417962 63.8510675 -31.88712521 60.33744531 -29.859375 56.82421875 C-29.51877548 56.23406982 -29.17817596 55.6439209 -28.82725525 55.03588867 C-27.19230093 52.20307244 -25.55725345 49.37031 -23.92211914 46.53759766 C-22.77834766 44.55543744 -21.6364317 42.57220476 -20.49682617 40.58764648 C-19.56724611 38.98062983 -18.62667871 37.37985245 -17.66918945 35.78930664 C-16.73156464 34.22052198 -15.85712329 32.61417634 -15 31 C-15.42459932 28.73403336 -15.42459932 28.73403336 -17 27 C-21.16188316 21.50631422 -21.75360196 16.80364586 -21 10 C-16.72040994 1.11162065 -9.41460465 -2.11415683 0 0 Z " fill="#FCA44A" transform="translate(173,125)"/>
<path d="M0 0 C2.96470328 1.14861185 5.80233962 2.34717387 8.58203125 3.890625 C9.25379395 4.2628418 9.92555664 4.63505859 10.61767578 5.01855469 C11.34196777 5.42493164 12.06625977 5.83130859 12.8125 6.25 C13.59093262 6.68473633 14.36936523 7.11947266 15.17138672 7.56738281 C24.78632578 12.96438557 34.29149315 18.55067191 43.80224609 24.12841797 C47.14177244 26.0829766 50.48621054 28.02889374 53.83203125 29.97265625 C54.93788574 30.61557617 56.04374023 31.25849609 57.18310547 31.92089844 C59.32085801 33.16345708 61.45918692 34.40502475 63.59814453 35.64550781 C64.55446777 36.20206055 65.51079102 36.75861328 66.49609375 37.33203125 C67.34357178 37.82421143 68.1910498 38.3163916 69.06420898 38.82348633 C71 40 71 40 72 41 C72.09680041 43.05027739 72.12186943 45.10394879 72.12025452 47.1565094 C72.12153615 48.13171827 72.12153615 48.13171827 72.12284368 49.12662834 C72.12450026 51.3208558 72.11897425 53.51500802 72.11352539 55.70922852 C72.11324353 57.27585854 72.11340123 58.8424887 72.1139679 60.40911865 C72.11425592 64.67546377 72.10835843 68.94178102 72.10139394 73.20811963 C72.09516118 77.66177051 72.09455666 82.11542197 72.09336853 86.56907654 C72.09025498 95.00867443 72.08204128 103.44825944 72.07201904 111.88785166 C72.06085863 121.49349444 72.05534764 131.09913782 72.05032361 140.70478547 C72.03985868 160.46986418 72.02225879 180.23493128 72 200 C73.20955589 199.99585193 73.20955589 199.99585193 74.44354725 199.99162006 C94.04745554 199.92542076 113.65134158 199.87574895 133.25533772 199.84456348 C142.73561423 199.8290823 152.21581623 199.80796894 161.69604492 199.77368164 C169.95721729 199.74381752 178.2183357 199.7244341 186.47956055 199.71773452 C190.85545828 199.71381717 195.23120161 199.70458505 199.60704994 199.68280983 C203.72330775 199.66249178 207.83934714 199.65615665 211.95565033 199.66067696 C213.46859358 199.65984965 214.98154392 199.65385608 216.49444389 199.64238358 C218.55620313 199.6275121 220.61713185 199.63102601 222.6789093 199.63923645 C223.83391591 199.63647107 224.98892252 199.63370569 226.17892933 199.63085651 C229 200 229 200 230.87080669 201.35506725 C232.57267903 203.83424024 232.38887931 205.89648651 232.3984375 208.875 C232.40230469 210.02484375 232.40617187 211.1746875 232.41015625 212.359375 C232.39275391 214.16148437 232.39275391 214.16148437 232.375 216 C232.38660156 217.20140625 232.39820313 218.4028125 232.41015625 219.640625 C232.40628906 220.79046875 232.40242188 221.9403125 232.3984375 223.125 C232.39505371 224.17945313 232.39166992 225.23390625 232.38818359 226.3203125 C232 229 232 229 230.92971611 230.64371067 C228.03585379 232.67764434 225.14647644 232.41312195 221.73635864 232.38031673 C220.61312277 232.38730661 220.61312277 232.38730661 219.46719527 232.3944377 C216.93775361 232.40646516 214.40884144 232.39696277 211.87939453 232.38768005 C210.05577834 232.39184958 208.23216473 232.39732499 206.40855598 232.40399987 C201.381579 232.41852309 196.35476499 232.4141884 191.32777882 232.40683305 C185.91257476 232.40212064 180.49740695 232.41459404 175.08221436 232.42485046 C164.46760795 232.44208139 153.85306062 232.44286965 143.23844385 232.43763756 C134.61486872 232.43360284 125.99131111 232.43503109 117.36773682 232.44038582 C115.52958127 232.44150845 115.52958127 232.44150845 113.65429127 232.44265376 C111.16515906 232.44418517 108.67602686 232.44572352 106.18689466 232.44726873 C82.82379083 232.46100914 59.46072046 232.45554512 36.09761739 232.44408352 C14.70206498 232.43393795 -6.69339914 232.44709461 -28.08893847 232.47101771 C-50.03502779 232.49537237 -71.98107677 232.50502564 -93.92717934 232.49836498 C-106.2574477 232.49486486 -118.58764953 232.49715701 -130.91790771 232.51461601 C-141.41367144 232.52929258 -151.90932179 232.53003314 -162.40508318 232.5125451 C-167.76440191 232.50399538 -173.12351775 232.50198184 -178.48282623 232.51719666 C-183.3829171 232.53093607 -188.28262919 232.52642055 -193.18269753 232.50695742 C-194.96124859 232.50316382 -196.73982922 232.50621477 -198.51835418 232.51656907 C-200.92482111 232.52958971 -203.32995135 232.51829148 -205.73635864 232.50057125 C-206.78693179 232.51504702 -206.78693179 232.51504702 -207.85872865 232.52981523 C-211.03776914 232.48131096 -212.60005625 232.38739657 -214.92971611 230.13082367 C-216.27743824 227.44764938 -216.38785681 225.49886848 -216.3984375 222.5 C-216.40423828 220.9221875 -216.40423828 220.9221875 -216.41015625 219.3125 C-216.39855469 218.219375 -216.38695312 217.12625 -216.375 216 C-216.38660156 214.906875 -216.39820313 213.81375 -216.41015625 212.6875 C-216.40628906 211.635625 -216.40242187 210.58375 -216.3984375 209.5 C-216.39505371 208.5409375 -216.39166992 207.581875 -216.38818359 206.59375 C-215.91779783 203.45074473 -215.38333904 202.11948146 -213 200 C-209.99731445 199.54589844 -209.99731445 199.54589844 -206.36328125 199.609375 C-205.19321533 199.61936523 -204.02314941 199.62935547 -202.81762695 199.63964844 C-201.33093506 199.67606445 -199.84424316 199.71248047 -198.3125 199.75 C-193.589375 199.8325 -188.86625 199.915 -184 200 C-184 189.44 -184 178.88 -184 168 C-141.76 168 -99.52 168 -56 168 C-56 132.36 -56 96.72 -56 60 C-52.69305047 61.32277981 -50.25812644 62.33595069 -47.36328125 64.1640625 C-37.89578138 70.24538629 -37.89578138 70.24538629 -26.98828125 71.515625 C-24.2903899 70.81597538 -22.2210111 69.66575833 -20 68 C-19.34 68 -18.68 68 -18 68 C-15.61344933 62.11317501 -14.20421327 57.37719502 -15 51 C-17.06093905 47.02533183 -19.23570193 44.4199059 -23 42 C-21.68993659 37.67116471 -20.01069797 33.98165828 -17.734375 30.078125 C-17.09113281 28.96953125 -16.44789063 27.8609375 -15.78515625 26.71875 C-15.10684518 25.56245638 -14.42845942 24.40620658 -13.75 23.25 C-12.76580078 21.55617188 -12.76580078 21.55617188 -11.76171875 19.828125 C-7.89496516 13.18622619 -3.97386639 6.57833469 0 0 Z " fill="#F96391" transform="translate(216,280)"/>
<path d="M0 0 C3.47488654 1.43951157 6.10927262 3.61940098 9 6 C10.05619188 6.82340272 11.11497548 7.64348753 12.17578125 8.4609375 C15.19403525 10.79694834 18.1844711 13.16610015 21.16943359 15.54443359 C24.10232058 17.87650511 27.05167183 20.18750464 30 22.5 C31.17197104 23.42045065 32.34384601 24.34102363 33.515625 25.26171875 C34.09376953 25.71595215 34.67191406 26.17018555 35.26757812 26.63818359 C36.96546138 27.97285 38.66253347 29.30854079 40.359375 30.64453125 C46.88985886 35.78426392 53.43749359 40.90120342 60 46 C67.68802752 51.97328002 75.34946369 57.97874457 83 64 C87.62 67.63 92.24 71.26 97 75 C97.33 60.81 97.66 46.62 98 32 C94.7 32 91.4 32 88 32 C84.49512817 28.49512817 84.61675304 27.85866082 84.6015625 23.125 C84.59769531 21.97515625 84.59382813 20.8253125 84.58984375 19.640625 C84.60724609 17.83851562 84.60724609 17.83851562 84.625 16 C84.61339844 14.79859375 84.60179687 13.5971875 84.58984375 12.359375 C84.59371094 11.20953125 84.59757812 10.0596875 84.6015625 8.875 C84.60494629 7.82054687 84.60833008 6.76609375 84.61181641 5.6796875 C85 3 85 3 86.09286499 1.35678101 C88.97821323 -0.69592405 91.39189233 -0.38155155 94.90234375 -0.38818359 C95.60022003 -0.39344055 96.29809631 -0.39869751 97.01712036 -0.40411377 C99.3241412 -0.41731846 101.63047213 -0.40857455 103.9375 -0.3984375 C105.54028455 -0.40045811 107.14306821 -0.40336945 108.74584961 -0.40713501 C112.1050695 -0.41155898 115.4640501 -0.40512513 118.82324219 -0.39111328 C123.13106839 -0.37402116 127.4383339 -0.38386198 131.74613953 -0.40183067 C135.05582918 -0.41266666 138.3653857 -0.40922307 141.67507935 -0.4014473 C143.26351996 -0.39944477 144.85197263 -0.40190643 146.44039917 -0.40888596 C148.65981096 -0.41649763 150.87831234 -0.40490145 153.09765625 -0.38818359 C154.36101807 -0.38579681 155.62437988 -0.38341003 156.92602539 -0.38095093 C160 -0 160 -0 161.86889648 1.33676147 C164.85200191 5.72328826 164.22109523 10.79498696 164.25 15.875 C164.2809375 17.22271484 164.2809375 17.22271484 164.3125 18.59765625 C164.34187372 23.5691592 164.24103657 26.95688873 161 31 C160 32 160 32 157.93359375 32.09765625 C157.10988281 32.08605469 156.28617187 32.07445312 155.4375 32.0625 C154.61121094 32.05347656 153.78492188 32.04445312 152.93359375 32.03515625 C152.29550781 32.02355469 151.65742188 32.01195312 151 32 C150.8057011 43.02311517 150.68791143 54.04420618 150.66578102 65.06908894 C150.65314083 70.18966557 150.61489778 75.30729643 150.51660156 80.42700195 C150.42256434 85.37527065 150.39779665 90.31963145 150.41953659 95.26869774 C150.41591742 97.14938155 150.38800618 99.03019164 150.33458328 100.91012001 C149.80445383 110.85356841 149.80445383 110.85356841 153.33727264 119.82827377 C156.56586232 123.08689589 160.21144007 125.51340992 164.1431427 127.8414011 C167.29107798 129.805577 170.12569125 132.16139043 173 134.5 C173.65258789 135.01264404 174.30517578 135.52528809 174.97753906 136.0534668 C177.77256674 138.24911632 180.5667691 140.44580216 183.359375 142.64453125 C183.91689453 143.08313477 184.47441406 143.52173828 185.04882812 143.97363281 C186.1835758 144.8667092 187.31769025 145.76059075 188.45117188 146.65527344 C191.83520772 149.32062609 195.24254306 151.9517155 198.671875 154.55859375 C199.87312012 155.47741333 199.87312012 155.47741333 201.09863281 156.41479492 C202.65573689 157.60478591 204.21733839 158.78892385 205.78417969 159.96606445 C216.73911714 168.3634623 216.73911714 168.3634623 218.91015625 174.625 C219.26671105 180.18359798 218.9859115 184.08769399 216 189 C211.79628333 193.30433755 208.42463695 195.18516856 202.4375 195.4375 C195.98949605 195.40642528 191.61850445 193.50880126 187 189 C186.67 188.01 186.34 187.02 186 186 C184.13454622 184.92608188 184.13454622 184.92608188 182 184 C180.79608164 183.16984387 179.61413991 182.30713859 178.453125 181.41796875 C177.44560181 180.64827759 177.44560181 180.64827759 176.41772461 179.86303711 C175.70237549 179.31010986 174.98702637 178.75718262 174.25 178.1875 C173.49920166 177.6107251 172.74840332 177.0339502 171.97485352 176.43969727 C166.2175565 171.99490714 160.57305444 167.42257095 154.95214844 162.80737305 C149.74847732 158.55557739 144.40586277 154.52207349 139.00634766 150.52368164 C133.47463396 146.40638042 128.1248434 142.09136191 122.79345703 137.71923828 C118.18565593 133.94571556 113.51550928 130.27175509 108.78125 126.65869141 C104.93246623 123.72127504 101.11494363 120.74714387 97.3125 117.75 C91.89133229 113.4788233 86.45050885 109.2336671 81 105 C73.87662651 99.46560019 66.77303237 93.90691785 59.68554688 88.32666016 C56.79191177 86.04913797 53.89583448 83.77472459 51 81.5 C47.54572649 78.78661257 44.09183952 76.07274646 40.640625 73.35546875 C35.63930731 69.41924649 30.63317099 65.48954937 25.609375 61.58203125 C24.85277588 60.99349365 24.09617676 60.40495605 23.31665039 59.79858398 C21.77852755 58.60442749 20.23866233 57.41251172 18.69702148 56.22290039 C15.07798052 53.42497659 11.49503134 50.60193786 7.98828125 47.6640625 C7.36501953 47.14972656 6.74175781 46.63539062 6.09960938 46.10546875 C4.94718637 45.1507839 3.80554728 44.18285486 2.67773438 43.19921875 C-0.02485436 40.97911465 -1.97055464 40.00526529 -5.4296875 39.38671875 C-10.16658866 40.20038777 -12.76470741 42.20338481 -16.4375 45.1875 C-17.46967651 45.99356689 -17.46967651 45.99356689 -18.52270508 46.81591797 C-20.69812398 48.52452257 -22.85118047 50.25809494 -25 52 C-25.68900391 52.5554248 -26.37800781 53.11084961 -27.08789062 53.68310547 C-30.47214877 56.41450126 -33.84310794 59.16158638 -37.20703125 61.91796875 C-42.11743245 65.92794471 -47.15121725 69.76731064 -52.19091797 73.61328125 C-55.78713836 76.36989823 -59.36141148 79.1548491 -62.9375 81.9375 C-63.70658691 82.53594727 -64.47567383 83.13439453 -65.26806641 83.75097656 C-71.63154568 88.70648721 -77.97748507 93.68399423 -84.31445312 98.67333984 C-87.79423078 101.41220308 -91.27734312 104.1468253 -94.75976562 106.88232422 C-97.62734065 109.13507712 -100.49422954 111.38868889 -103.359375 113.64453125 C-110.65890138 119.38952887 -117.983049 125.10203617 -125.31835938 130.80126953 C-132.23236216 136.17538892 -139.12012567 141.58230036 -146 147 C-153.64879034 153.02319848 -161.31237834 159.02640625 -169 165 C-171.2845034 166.77664868 -173.56882849 168.5535262 -175.85302734 170.33056641 C-177.21997345 171.39347037 -178.58743089 172.45571729 -179.95556641 173.51708984 C-181.74328325 174.90459275 -183.52869459 176.29497281 -185.3125 177.6875 C-185.87130859 178.12312256 -186.43011719 178.55874512 -187.00585938 179.00756836 C-189.91177718 181.29194264 -192.75369149 183.6288963 -195.54296875 186.0546875 C-196.41344849 186.80939331 -196.41344849 186.80939331 -197.30151367 187.5793457 C-198.39644977 188.53546714 -199.48445843 189.49960933 -200.5637207 190.47338867 C-204.49467355 193.91385286 -208.07584518 195.85379226 -213.34375 196.1171875 C-219.9169259 195.378896 -223.75019185 193.3682191 -228.375 188.5 C-230.72325726 183.44221514 -230.97097307 178.48314207 -230 173 C-227.22737382 167.74912524 -223.39877179 164.52636899 -218.8125 160.9375 C-218.11125 160.37804687 -217.41 159.81859375 -216.6875 159.2421875 C-210.97470526 154.70645171 -205.17430178 150.28445147 -199.36083984 145.87890625 C-194.47005176 142.16195198 -189.68374124 138.3368629 -184.9375 134.4375 C-179.07989282 129.62712711 -173.09707197 125.03392043 -167.00634766 120.52368164 C-161.47463396 116.40638042 -156.1248434 112.09136191 -150.79345703 107.71923828 C-146.18565593 103.94571556 -141.51550928 100.27175509 -136.78125 96.65869141 C-132.93246623 93.72127504 -129.11494363 90.74714387 -125.3125 87.75 C-119.89133229 83.4788233 -114.45050885 79.2336671 -109 75 C-101.87662651 69.46560019 -94.77303237 63.90691785 -87.68554688 58.32666016 C-84.20576922 55.58779692 -80.72265688 52.8531747 -77.24023438 50.11767578 C-74.37265935 47.86492288 -71.50577046 45.61131111 -68.640625 43.35546875 C-61.3427185 37.61174604 -54.02122757 31.89915962 -46.68603516 26.203125 C-42.56731442 23.00309438 -38.45854808 19.79128224 -34.36425781 16.56005859 C-11.56022115 -1.43605232 -11.56022115 -1.43605232 0 0 Z " fill="#F86491" transform="translate(230,0)"/>
<path d="M0 0 C2.96470328 1.14861185 5.80233962 2.34717387 8.58203125 3.890625 C9.25379395 4.2628418 9.92555664 4.63505859 10.61767578 5.01855469 C11.34196777 5.42493164 12.06625977 5.83130859 12.8125 6.25 C13.59093262 6.68473633 14.36936523 7.11947266 15.17138672 7.56738281 C24.78632578 12.96438557 34.29149315 18.55067191 43.80224609 24.12841797 C47.14177244 26.0829766 50.48621054 28.02889374 53.83203125 29.97265625 C54.93788574 30.61557617 56.04374023 31.25849609 57.18310547 31.92089844 C59.32085801 33.16345708 61.45918692 34.40502475 63.59814453 35.64550781 C64.55446777 36.20206055 65.51079102 36.75861328 66.49609375 37.33203125 C67.34357178 37.82421143 68.1910498 38.3163916 69.06420898 38.82348633 C71 40 71 40 72 41 C72.09680041 43.05027739 72.12186943 45.10394879 72.12025452 47.1565094 C72.12153615 48.13171827 72.12153615 48.13171827 72.12284368 49.12662834 C72.12450026 51.3208558 72.11897425 53.51500802 72.11352539 55.70922852 C72.11324353 57.27585854 72.11340123 58.8424887 72.1139679 60.40911865 C72.11425592 64.67546377 72.10835843 68.94178102 72.10139394 73.20811963 C72.09516118 77.66177051 72.09455666 82.11542197 72.09336853 86.56907654 C72.09025498 95.00867443 72.08204128 103.44825944 72.07201904 111.88785166 C72.06085863 121.49349444 72.05534764 131.09913782 72.05032361 140.70478547 C72.03985868 160.46986578 72.02151291 180.23492841 72 200 C50.88 200 29.76 200 8 200 C7.67 190.76 7.34 181.52 7 172 C2.79447923 168.84585942 2.06074368 168.62030709 -2.87011719 168.56762695 C-4.06749512 168.54768677 -5.26487305 168.52774658 -6.49853516 168.50720215 C-7.7519873 168.50095825 -9.00543945 168.49471436 -10.296875 168.48828125 C-11.45268066 168.47164429 -12.60848633 168.45500732 -13.79931641 168.43786621 C-18.1160259 168.38004051 -22.4330476 168.34780805 -26.75 168.3125 C-41.22875 168.1578125 -41.22875 168.1578125 -56 168 C-56 132.36 -56 96.72 -56 60 C-52.69305047 61.32277981 -50.25812644 62.33595069 -47.36328125 64.1640625 C-37.89578138 70.24538629 -37.89578138 70.24538629 -26.98828125 71.515625 C-24.2903899 70.81597538 -22.2210111 69.66575833 -20 68 C-19.34 68 -18.68 68 -18 68 C-15.61344933 62.11317501 -14.20421327 57.37719502 -15 51 C-17.06093905 47.02533183 -19.23570193 44.4199059 -23 42 C-21.68993659 37.67116471 -20.01069797 33.98165828 -17.734375 30.078125 C-17.09113281 28.96953125 -16.44789063 27.8609375 -15.78515625 26.71875 C-15.10684518 25.56245638 -14.42845942 24.40620658 -13.75 23.25 C-13.09386719 22.12078125 -12.43773437 20.9915625 -11.76171875 19.828125 C-7.89496516 13.18622619 -3.97386639 6.57833469 0 0 Z " fill="#757575" transform="translate(216,280)"/>
<path d="M0 0 C11.25137431 5.62568716 11.25137431 5.62568716 16.05078125 8.4453125 C17.07880859 9.04730469 18.10683594 9.64929688 19.16601562 10.26953125 C20.20435547 10.88183594 21.24269531 11.49414062 22.3125 12.125 C23.37017578 12.74503906 24.42785156 13.36507813 25.51757812 14.00390625 C30.02450832 16.6483511 34.52217046 19.3065307 39 22 C38.76410156 22.85851562 38.76410156 22.85851562 38.5234375 23.734375 C38.01135839 25.95083682 37.73119316 27.97910014 37.625 30.25 C37.57601562 30.95640625 37.52703125 31.6628125 37.4765625 32.390625 C38.54880652 37.73584147 41.04856977 41.58971624 45.48095703 44.79296875 C48.52489305 46.5898979 51.61158378 48.24880394 54.75 49.875 C57.02810719 51.10144756 59.30545055 52.32931498 61.58203125 53.55859375 C62.68885254 54.14882324 63.79567383 54.73905273 64.93603516 55.34716797 C68.83010687 57.4477947 72.64182375 59.66527803 76.4375 61.9375 C84.62258752 66.80160562 92.87130506 71.55301273 101.12670898 76.29663086 C103.25011387 77.51842273 105.35353987 78.77546499 107.43774414 80.06298828 C110.07495953 81.6156095 112.64491337 82.57552998 115.56030273 83.49560547 C120.71103077 85.36139791 124.94069856 87.28691211 128 92 C130.91630765 102.93518124 129.56765377 115.00530589 129.0625 126.125 C128.711875 136.97375 128.36125 147.8225 128 159 C85.76 159 43.52 159 0 159 C0 106.53 0 54.06 0 0 Z " fill="#DFF5FC" transform="translate(288,321)"/>
<path d="M0 0 C2.34689315 1.17266774 4.57979818 2.45520666 6.82421875 3.8137207 C8.09676514 4.54764038 8.09676514 4.54764038 9.39501953 5.29638672 C12.17576866 6.90643996 14.93744364 8.54636612 17.69921875 10.1887207 C19.65128434 11.33245785 21.60442806 12.4743567 23.55859375 13.61450195 C26.5855824 15.38069821 29.61167369 17.14822735 32.63330078 18.92358398 C39.25679254 22.80588292 45.94138416 26.54594927 52.69921875 30.1887207 C63.47310162 36.00224522 74.02633589 42.16333989 84.58105469 48.36352539 C89.89790532 51.47570636 95.23623851 54.55047008 100.57421875 57.6262207 C101.63962891 58.24134521 102.70503906 58.85646973 103.80273438 59.49023438 C108.89288803 62.42747953 113.987386 65.35653697 119.09585571 68.26179504 C120.89195832 69.28383425 122.68666353 70.30828466 124.48095703 71.33349609 C126.73437251 72.62009703 128.99042048 73.90210212 131.24951172 75.17871094 C145.26998983 83.19911558 145.26998983 83.19911558 147.69921875 89.1887207 C149.61902766 99.60707255 145.29982879 106.93085276 140.07421875 115.4387207 C139.35187962 116.66393773 138.63181267 117.89049727 137.9140625 119.1184082 C127.33677526 137.05173167 127.33677526 137.05173167 121.69921875 139.1887207 C112.63006602 140.5401957 106.53901317 138.31758908 98.94921875 133.5637207 C97.97766846 132.98485107 97.00611816 132.40598145 96.00512695 131.80957031 C93.94934021 130.58359718 91.89969214 129.34727826 89.85595703 128.10131836 C85.60888121 125.52810939 81.31110064 123.04648157 77.01269531 120.56030273 C66.72641614 114.60737172 56.50733317 108.55255972 46.40625 102.2902832 C39.81744905 98.22807293 33.12159868 94.37740751 26.38671875 90.5637207 C23.91833854 89.16040776 21.45121989 87.75488672 18.984375 86.34887695 C18.06220184 85.82347572 18.06220184 85.82347572 17.12139893 85.28746033 C9.212406 80.77700395 1.34736911 76.19216073 -6.5 71.57543945 C-10.47724613 69.23878203 -14.48114852 66.95861362 -18.5078125 64.70825195 C-19.51215332 64.1380835 -20.51649414 63.56791504 -21.55126953 62.98046875 C-23.44589705 61.90527157 -25.34875593 60.84439154 -27.26123047 59.80126953 C-32.91263365 56.56311916 -36.95257256 53.42036682 -39.30078125 47.1887207 C-40.85747373 41.31253834 -39.0294154 37.15672333 -36.23046875 31.9387207 C-34.89875282 29.67691747 -33.54652412 27.42708734 -32.17578125 25.1887207 C-31.510625 24.0646582 -30.84546875 22.9405957 -30.16015625 21.7824707 C-14.19925614 -5.00680477 -14.19925614 -5.00680477 0 0 Z " fill="#FBAD42" transform="translate(364.30078125,308.811279296875)"/>
<path d="M0 0 C2.77447881 1.58509527 5.05998592 3.62764541 7.4375 5.75 C8.8505176 6.95588056 10.26594797 8.15893878 11.68359375 9.359375 C12.40015137 9.97103516 13.11670898 10.58269531 13.85498047 11.21289062 C17.13616717 13.94659045 20.55873994 16.47295728 24 19 C30.21110047 23.59511774 36.23294529 28.38197823 42.20654297 33.28076172 C46.81434407 37.05428444 51.48449072 40.72824491 56.21875 44.34130859 C60.06753377 47.27872496 63.88505637 50.25285613 67.6875 53.25 C73.10866771 57.5211767 78.54949115 61.7663329 84 66 C91.12337349 71.53439981 98.22696763 77.09308215 105.31445312 82.67333984 C108.20808823 84.95086203 111.10416552 87.22527541 114 89.5 C117.45427351 92.21338743 120.90816048 94.92725354 124.359375 97.64453125 C130.88985886 102.78426392 137.43749359 107.90120342 144 113 C149.42678149 117.2163852 154.84773521 121.43973599 160.25 125.6875 C160.80695557 126.12529785 161.36391113 126.5630957 161.93774414 127.01416016 C164.87178981 129.32189417 167.80239645 131.63391061 170.73046875 133.94921875 C171.35083008 134.4388208 171.97119141 134.92842285 172.61035156 135.43286133 C173.78135294 136.35711375 174.95136709 137.28261918 176.12011719 138.2097168 C176.65668945 138.63293213 177.19326172 139.05614746 177.74609375 139.4921875 C178.4887028 140.09860942 178.4887028 140.09860942 179.24631405 140.7172823 C180.93908051 142.04728971 180.93908051 142.04728971 182.82107639 142.82493114 C185.11431515 143.97431616 186.41297732 144.96517822 188 147 C189.05821691 151.84109929 188.88465759 156.6834563 188.79467773 161.61254883 C188.79270245 163.12065539 188.79381306 164.62876869 188.79777527 166.13687134 C188.79978284 170.22587891 188.75864592 174.31344756 188.70975757 178.40212083 C188.66598193 182.67683495 188.6618852 186.95158252 188.65357971 191.22648621 C188.63182748 199.31918621 188.57439104 207.41122385 188.50413328 215.50363225 C188.42587647 224.71750576 188.38740004 233.93141101 188.35226524 243.14553416 C188.27910771 262.09739823 188.15599272 281.04864585 188 300 C187.09687922 299.5378648 186.19375845 299.0757296 185.26327038 298.5995903 C184.03569751 297.97633892 182.80762133 297.35407829 181.57914734 296.73260498 C180.93984651 296.40885604 180.30054569 296.08510709 179.64187211 295.75154757 C176.1379475 293.99857238 172.66455932 292.42831244 168.97517395 291.09405518 C164.23973453 289.20376083 160.12858926 287.13929476 157 283 C153.92385682 274.34157387 154.98522247 264.57426219 155.26171875 255.546875 C155.29105616 252.84026212 155.29352344 250.13381657 155.2960968 247.42706299 C155.31650108 241.04353795 155.41977085 234.66437328 155.55646116 228.28238416 C155.75390136 218.91793259 155.83974955 209.55229722 155.9089098 200.18611526 C155.91657628 199.15328765 155.91657628 199.15328765 155.92439765 198.09959483 C155.93451954 196.72634781 155.94438648 195.35309888 155.95399123 193.97984815 C155.99001284 189.32693599 156.07283073 184.67623171 156.16960144 180.02410889 C156.20543758 177.58997064 156.24096167 175.15582777 156.27612305 172.72167969 C156.32373024 171.06641769 156.32373024 171.06641769 156.37229919 169.37771606 C156.44958384 161.97687093 155.44561613 158.61349998 150.31640625 153.234375 C145.16313471 148.87303161 139.84170473 144.7463722 134.47265625 140.65625 C131.05970606 138.05372 127.68258699 135.40768724 124.3125 132.75 C118.89144579 128.47868081 113.45053733 124.23362777 108 120 C102.0948894 115.41271232 96.2030719 110.80942811 90.328125 106.18359375 C85.56625367 102.43744268 80.78468013 98.71695789 76 95 C70.09492405 90.41266751 64.20307217 85.80942832 58.328125 81.18359375 C53.56625367 77.43744268 48.78468013 73.71695789 44 70 C38.09492405 65.41266751 32.20307217 60.80942832 26.328125 56.18359375 C20.79760242 51.83274686 15.24016341 47.5167511 9.68286133 43.20019531 C5.00560464 39.56537853 0.34066537 35.91559233 -4.3125 32.25 C-15.4367348 23.32250504 -15.4367348 23.32250504 -27 15 C-23.7845773 12.50986061 -20.56485874 10.02609882 -17.33203125 7.55859375 C-15.47130096 6.1378136 -13.63771607 4.70405891 -11.82421875 3.22265625 C-7.72928642 -0.0250487 -5.16528524 -0.65302052 0 0 Z " fill="#D5E2F3" transform="translate(228,39)"/>
<path d="M0 0 C24.29538596 -0.09255365 48.59072953 -0.16395679 72.88625622 -0.20724869 C84.16682622 -0.2278832 95.44728475 -0.25602087 106.7277832 -0.30175781 C116.55865452 -0.34159826 126.38944511 -0.36742634 136.22039491 -0.37635398 C141.42693562 -0.38157344 146.63324538 -0.39385967 151.83971214 -0.42292023 C156.73902479 -0.45004513 161.63801106 -0.45845088 166.53739166 -0.45243073 C168.336536 -0.45353227 170.13569112 -0.46150355 171.93477058 -0.4768219 C174.39007727 -0.49670441 176.8441494 -0.4919461 179.29948425 -0.48101807 C180.01252738 -0.49266943 180.7255705 -0.5043208 181.46022099 -0.51632524 C186.79791295 -0.45204702 187.40575698 0.32460559 192 4 C192 13.24 192 22.48 192 32 C128.64 32 65.28 32 0 32 C0 21.44 0 10.88 0 0 Z " fill="#FBAD42" transform="translate(32,448)"/>
<path d="M0 0 C0.69787628 -0.00525696 1.39575256 -0.01051392 2.11477661 -0.01593018 C4.42179745 -0.02913487 6.72812838 -0.02039095 9.03515625 -0.01025391 C10.6379408 -0.01227452 12.24072446 -0.01518585 13.84350586 -0.01895142 C17.20272575 -0.02337538 20.56170635 -0.01694153 23.92089844 -0.00292969 C28.22872464 0.01416244 32.53599015 0.00432162 36.84379578 -0.01364708 C40.15348543 -0.02448306 43.46304195 -0.02103947 46.7727356 -0.0132637 C48.36117621 -0.01126117 49.94962888 -0.01372284 51.53805542 -0.02070236 C53.75746721 -0.02831404 55.97596859 -0.01671786 58.1953125 0 C59.45867432 0.00238678 60.72203613 0.00477356 62.02368164 0.00723267 C65.09765625 0.38818359 65.09765625 0.38818359 66.96655273 1.72494507 C69.94965816 6.11147185 69.31875148 11.18317055 69.34765625 16.26318359 C69.36828125 17.16166016 69.38890625 18.06013672 69.41015625 18.98583984 C69.43952997 23.9573428 69.33869282 27.34507232 66.09765625 31.38818359 C65.60265625 31.88318359 65.60265625 31.88318359 65.09765625 32.38818359 C62.12765625 32.38818359 59.15765625 32.38818359 56.09765625 32.38818359 C56.09765625 60.43818359 56.09765625 88.48818359 56.09765625 117.38818359 C52.42464581 116.46993098 51.37262908 116.07248824 48.6640625 113.79833984 C48.02194824 113.26644043 47.37983398 112.73454102 46.71826172 112.18652344 C46.03908691 111.61369629 45.35991211 111.04086914 44.66015625 110.45068359 C43.21726866 109.25531655 41.77324412 108.06132065 40.328125 106.86865234 C39.61188965 106.27616699 38.8956543 105.68368164 38.15771484 105.07324219 C34.28999279 101.90957572 30.30749106 98.90048589 26.3359375 95.86865234 C22.7546194 93.13324534 19.20484816 90.35831836 15.66015625 87.57568359 C15.09280762 87.13144043 14.52545898 86.68719727 13.94091797 86.22949219 C13.12324951 85.58681396 13.12324951 85.58681396 12.2890625 84.93115234 C11.81670166 84.56014404 11.34434082 84.18913574 10.85766602 83.80688477 C9.98646118 83.10462769 9.98646118 83.10462769 9.09765625 82.38818359 C7.53204956 81.39165771 7.53204956 81.39165771 5.93481445 80.375 C3.93439982 78.68997173 3.18932496 77.77033192 2.57380676 75.20436096 C2.40270742 72.46914482 2.42322108 69.79533508 2.51171875 67.05615234 C2.52020844 66.06440506 2.52869812 65.07265778 2.53744507 64.05085754 C2.57096267 60.89134899 2.64624109 57.7344172 2.72265625 54.57568359 C2.75275787 52.43053823 2.78013333 50.28535275 2.8046875 48.14013672 C2.87074769 42.88861039 2.9710784 37.63858107 3.09765625 32.38818359 C2.06705078 32.44039062 2.06705078 32.44039062 1.015625 32.49365234 C0.11457031 32.52072266 -0.78648437 32.54779297 -1.71484375 32.57568359 C-3.05482422 32.62789062 -3.05482422 32.62789062 -4.421875 32.68115234 C-6.90234375 32.38818359 -6.90234375 32.38818359 -8.70230103 31.04394531 C-10.49663598 28.56820751 -10.29106882 26.53976305 -10.30078125 23.51318359 C-10.30464844 22.36333984 -10.30851562 21.21349609 -10.3125 20.02880859 C-10.30089844 18.82740234 -10.28929687 17.62599609 -10.27734375 16.38818359 C-10.28894531 15.18677734 -10.30054688 13.98537109 -10.3125 12.74755859 C-10.30863281 11.59771484 -10.30476563 10.44787109 -10.30078125 9.26318359 C-10.29739746 8.20873047 -10.29401367 7.15427734 -10.29052734 6.06787109 C-9.90234375 3.38818359 -9.90234375 3.38818359 -8.80947876 1.7449646 C-5.92413052 -0.30774046 -3.51045142 0.00663205 0 0 Z " fill="#D5E2F3" transform="translate(324.90234375,-0.38818359375)"/>
<path d="M0 0 C8.00920555 3.40142956 15.52947105 7.94013701 23 12.375 C25.10610909 13.61440643 27.21290871 14.85264003 29.3203125 16.08984375 C30.41118164 16.73034668 31.50205078 17.37084961 32.62597656 18.03076172 C38.35268797 21.37313901 44.11388495 24.65494964 49.875 27.9375 C52.23067837 29.2808827 54.58609206 30.62472891 56.94140625 31.96875 C57.52433945 32.30137344 58.10727264 32.63399689 58.70787048 32.97669983 C68.22896052 38.41164407 77.73001659 43.88099078 87.2109375 49.38574219 C89.72867396 50.8429615 92.25371839 52.28643212 94.78125 53.7265625 C96.12540391 54.50451086 97.46919206 55.28309178 98.8125 56.0625 C99.91207031 56.69285156 101.01164062 57.32320313 102.14453125 57.97265625 C105.95121721 60.67535121 108.8863196 63.7726392 111 68 C111.81017628 74.4017208 110.95485815 79.80118053 107 85 C102.75974467 88.99281337 98.25359662 89.41806483 92.62207031 89.32128906 C88.29327717 88.79087083 85.10056624 86.88946363 81.4375 84.625 C80.66212891 84.17020264 79.88675781 83.71540527 79.08789062 83.24682617 C76.71367455 81.84973213 74.35702749 80.42584376 72 79 C70.65916567 78.20949625 69.3167887 77.42160145 67.97265625 76.63671875 C65.23811487 75.03886482 62.50989953 73.43090911 59.78515625 71.81640625 C54.02849068 68.41614071 48.23177229 65.08563197 42.4375 61.75 C32.80356586 56.20191432 23.18348427 50.63115404 13.5925293 45.0090332 C8.88788257 42.25366256 4.17274442 39.52356177 -0.58203125 36.85546875 C-1.45609619 36.36143555 -2.33016113 35.86740234 -3.23071289 35.35839844 C-4.8539689 34.44286884 -6.48176509 33.53532003 -8.11499023 32.63769531 C-13.33259249 29.68356446 -17.02986026 26.91041921 -19 21 C-19.68000726 16.21676711 -20.08006946 11.8456132 -17.578125 7.5703125 C-12.63387659 1.80202269 -7.87321292 -1.47420906 0 0 Z " fill="#FEC372" transform="translate(91,263)"/>
<path d="M0 0 C5.41915685 2.23598449 10.39860824 5.39067684 15.39697266 8.42578125 C19.03958516 10.62870429 22.7223388 12.76038315 26.40356445 14.89794922 C29.44762645 16.66721178 32.48561298 18.44661512 35.5234375 20.2265625 C42.32174949 24.19900743 49.15870964 28.10232747 56 32 C65.04022784 37.15416198 74.06691076 42.33066076 83.0625 47.5625 C84.00673828 48.10970703 84.95097656 48.65691406 85.92382812 49.22070312 C90.65946399 51.98231234 95.35806149 54.79990063 100.015625 57.69140625 C101.35222168 58.52007202 101.35222168 58.52007202 102.71582031 59.36547852 C106.30398 61.93310668 107.48953016 63.82822617 109 68 C109.76867939 72.64513779 109.5301317 76.58373317 107.375 80.8125 C104.21363536 85.05538412 101.86323338 87.56801111 96.45947266 88.38330078 C87.6128927 88.76047481 82.23847926 86.09677348 74.875 81.4375 C73.16590458 80.40377293 71.45678316 79.37008604 69.74615479 78.33889771 C67.98440764 77.27263514 66.22966478 76.19552076 64.47558594 75.11669922 C59.05147676 71.79494768 53.5201116 68.65853742 48 65.5 C45.83934717 64.2547675 43.67919222 63.00867069 41.51953125 61.76171875 C40.44783691 61.14345215 39.37614258 60.52518555 38.27197266 59.88818359 C34.955618 57.97438812 31.63985279 56.05957488 28.32421875 54.14453125 C27.22440674 53.5095874 26.12459473 52.87464355 24.99145508 52.22045898 C22.8072059 50.95910471 20.62344068 49.69691196 18.44018555 48.43383789 C13.29194705 45.45902934 8.13402848 42.50527713 2.9453125 39.6015625 C1.51699097 38.79851685 1.51699097 38.79851685 0.05981445 37.97924805 C-1.70355285 36.98967509 -3.47037163 36.00621339 -5.24145508 35.03051758 C-10.93202253 31.83055217 -16.85346328 28.35979661 -20.4375 22.75 C-21.6099071 17.01823198 -21.94868968 11.97035549 -19.375 6.625 C-13.6292069 0.27438657 -8.41332923 -1.88930902 0 0 Z " fill="#FEC473" transform="translate(173,125)"/>
<path d="M0 0 C3.28766434 1.1615018 6.14838414 2.82329915 9.125 4.625 C9.97336426 5.11427979 10.82172852 5.60355957 11.69580078 6.10766602 C14.47654991 7.71771925 17.23822489 9.35764542 20 11 C21.95206559 12.14373715 23.90520931 13.285636 25.859375 14.42578125 C28.88636365 16.1919775 31.91245494 17.95950664 34.93408203 19.73486328 C41.55757379 23.61716222 48.24216541 27.35722857 55 31 C65.77388287 36.81352452 76.32711714 42.97461919 86.88183594 49.17480469 C92.19868657 52.28698565 97.53701976 55.36174937 102.875 58.4375 C104.47311523 59.36018677 104.47311523 59.36018677 106.10351562 60.30151367 C111.19366928 63.23875883 116.28816725 66.16781627 121.39663696 69.07307434 C123.19273957 70.09511355 124.98744478 71.11956396 126.78173828 72.14477539 C129.03515376 73.43137633 131.29120173 74.71338142 133.55029297 75.98999023 C147.57077108 84.01039488 147.57077108 84.01039488 150 90 C151.91980891 100.41835185 147.60061004 107.74213205 142.375 116.25 C141.65266087 117.47521702 140.93259392 118.70177657 140.21484375 119.9296875 C129.78178825 137.61847243 129.78178825 137.61847243 124 140 C114.84664118 141.41448636 108.5805992 139.01393963 101 134 C101.5967755 129.84108722 103.00325334 126.84965977 105.08984375 123.21875 C105.70923828 122.12949219 106.32863281 121.04023438 106.96679688 119.91796875 C107.94229492 118.22607422 107.94229492 118.22607422 108.9375 116.5 C110.22019882 114.26199109 111.50025052 112.02246241 112.77734375 109.78125 C113.34702881 108.79189453 113.91671387 107.80253906 114.50366211 106.78320312 C117.23214581 101.70819673 119.24622101 96.84034082 118 91 C115.53048075 86.59338079 113.22052573 84.08629419 108.875 81.5625 C108.05841919 81.08115601 108.05841919 81.08115601 107.2253418 80.59008789 C105.15851258 79.37863028 103.07914376 78.19019972 101 77 C99.0919912 75.89401671 97.18447883 74.78717674 95.27734375 73.6796875 C90.26082842 70.77243286 85.23647607 67.87907609 80.20831299 64.99201965 C74.13361716 61.50378145 68.06671339 58.00209594 62 54.5 C59.83336859 53.24993888 57.66670186 51.999939 55.5 50.75 C49 47 49 47 42.5 43.25 C40.88992065 42.3211499 40.88992065 42.3211499 39.24731445 41.37353516 C37.08950197 40.12858718 34.93178647 38.8834711 32.77416992 37.63818359 C27.22283408 34.43447349 21.66963459 31.2340637 16.11328125 28.0390625 C4.67967041 21.46078718 -6.73299389 14.86060273 -18 8 C-14.38651364 0.03694673 -8.01935355 -1.03361862 0 0 Z " fill="#FE905A" transform="translate(362,308)"/>
<path d="M0 0 C11.98674362 5.69452039 23.32496999 12.36083052 34.75292969 19.09423828 C40.10985535 22.23831059 45.49221969 25.33796675 50.875 28.4375 C51.94919189 29.05657227 53.02338379 29.67564453 54.13012695 30.31347656 C56.31563584 31.57296106 58.50126456 32.83223765 60.68701172 34.09130859 C69.45405495 39.14221088 78.21751275 44.19933499 86.98046875 49.25732422 C88.96467294 50.402477 90.94904296 51.54734252 92.93359375 52.69189453 C95.60213065 54.23111476 98.26992483 55.77161379 100.9375 57.3125 C101.71859131 57.76270508 102.49968262 58.21291016 103.30444336 58.67675781 C104.01737549 59.08893555 104.73030762 59.50111328 105.46484375 59.92578125 C106.079646 60.28067627 106.69444824 60.63557129 107.32788086 61.0012207 C108.91660863 61.95018921 110.46023542 62.97349028 112 64 C109.9044611 67.66852418 107.80476073 71.33462374 105.70117188 74.99853516 C104.98615522 76.24527246 104.27227957 77.49266487 103.55957031 78.74072266 C102.53489722 80.53461413 101.50614284 82.32610907 100.4765625 84.1171875 C99.85861816 85.19597168 99.24067383 86.27475586 98.60400391 87.38623047 C97 90 97 90 95 92 C75.5 80.75 56 69.5 36.5 58.25 C35.42588867 57.63036377 34.35177734 57.01072754 33.24511719 56.37231445 C31.09457457 55.13152967 28.94418208 53.89048465 26.79394531 52.64916992 C21.73622187 49.72980526 16.67705507 46.81303791 11.61242676 43.90567017 C9.23076498 42.53825234 6.8499698 41.16932961 4.46923828 39.80029297 C2.79673979 38.83935447 1.12299664 37.88058328 -0.55078125 36.921875 C-5.47613151 34.08870892 -10.33262961 31.2430177 -15 28 C-13.60582632 24.29102741 -11.92181521 20.92161688 -9.9609375 17.48046875 C-9.09082031 15.9480957 -9.09082031 15.9480957 -8.203125 14.38476562 C-7.59984375 13.32966797 -6.9965625 12.27457031 -6.375 11.1875 C-5.76398438 10.11306641 -5.15296875 9.03863281 -4.5234375 7.93164062 C-3.01844115 5.28613924 -1.51054209 2.6423375 0 0 Z " fill="#FEEF8A" transform="translate(232,252)"/>
<path d="M0 0 C3.80560234 0.58066603 6.526577 1.66421734 9.82421875 3.6328125 C10.75669434 4.18380615 11.68916992 4.7347998 12.64990234 5.30249023 C13.65230957 5.90391846 14.6547168 6.50534668 15.6875 7.125 C17.86025981 8.41086159 20.03345157 9.69599352 22.20703125 10.98046875 C23.89046631 11.97892822 23.89046631 11.97892822 25.60791016 12.99755859 C31.00694223 16.1847517 36.44055949 19.31119149 41.875 22.4375 C44.04821142 23.69004459 46.22138827 24.94264917 48.39453125 26.1953125 C51.73077109 28.11718508 55.06721467 30.03870315 58.40380859 31.95996094 C71.63773256 39.58103863 84.85812556 47.22103533 98 55 C94 62 90 69 86 76 C82.36367377 74.62551133 79.02935879 72.99565142 75.640625 71.09375 C74.61654541 70.52019775 73.59246582 69.94664551 72.53735352 69.35571289 C71.45252686 68.74332764 70.3677002 68.13094238 69.25 67.5 C67.55991821 66.54951782 67.55991821 66.54951782 65.83569336 65.57983398 C59.04626123 61.75080572 52.29252686 57.86903332 45.58911133 53.89160156 C39.23613364 50.12384773 32.8388079 46.43493414 26.4375 42.75 C13.93025249 35.54771262 1.45867383 28.28596292 -11 21 C-9.53171057 15.82064939 -7.18508737 11.65626588 -4.375 7.125 C-3.95476562 6.43664062 -3.53453125 5.74828125 -3.1015625 5.0390625 C-2.07307528 3.35608342 -1.037279 1.67757468 0 0 Z " fill="#FBAD42" transform="translate(107,245)"/>
<path d="M0 0 C0.69787628 -0.00525696 1.39575256 -0.01051392 2.11477661 -0.01593018 C4.42179745 -0.02913487 6.72812838 -0.02039095 9.03515625 -0.01025391 C10.6379408 -0.01227452 12.24072446 -0.01518585 13.84350586 -0.01895142 C17.20272575 -0.02337538 20.56170635 -0.01694153 23.92089844 -0.00292969 C28.22872464 0.01416244 32.53599015 0.00432162 36.84379578 -0.01364708 C40.15348543 -0.02448306 43.46304195 -0.02103947 46.7727356 -0.0132637 C48.36117621 -0.01126117 49.94962888 -0.01372284 51.53805542 -0.02070236 C53.75746721 -0.02831404 55.97596859 -0.01671786 58.1953125 0 C59.45867432 0.00238678 60.72203613 0.00477356 62.02368164 0.00723267 C65.09765625 0.38818359 65.09765625 0.38818359 66.96655273 1.72494507 C69.94965816 6.11147185 69.31875148 11.18317055 69.34765625 16.26318359 C69.36828125 17.16166016 69.38890625 18.06013672 69.41015625 18.98583984 C69.43952997 23.9573428 69.33869282 27.34507232 66.09765625 31.38818359 C64.20994781 33.27589203 60.9322089 32.53579914 58.42236328 32.54931641 C57.72477905 32.55428131 57.02719482 32.55924622 56.30847168 32.56436157 C53.99079416 32.57901814 51.67318509 32.58579114 49.35546875 32.59130859 C47.74982704 32.59705743 46.14418535 32.60281519 44.5385437 32.60858154 C41.16745686 32.61910166 37.79639393 32.62493761 34.42529297 32.62841797 C30.10177111 32.63390312 25.77856414 32.65792712 21.45514107 32.68638992 C18.13690259 32.70499794 14.8187402 32.71022093 11.50045395 32.71175385 C9.90641433 32.71478537 8.31237621 32.72283068 6.7183876 32.73593903 C4.48925984 32.75296087 2.26090435 32.75112915 0.03173828 32.74462891 C-1.23765594 32.74827454 -2.50705017 32.75192017 -3.81491089 32.75567627 C-6.90234375 32.38818359 -6.90234375 32.38818359 -8.8114624 31.03338623 C-10.45982617 28.54742163 -10.29129476 26.46935369 -10.30078125 23.51318359 C-10.30464844 22.36333984 -10.30851562 21.21349609 -10.3125 20.02880859 C-10.30089844 18.82740234 -10.28929687 17.62599609 -10.27734375 16.38818359 C-10.28894531 15.18677734 -10.30054688 13.98537109 -10.3125 12.74755859 C-10.30863281 11.59771484 -10.30476563 10.44787109 -10.30078125 9.26318359 C-10.29739746 8.20873047 -10.29401367 7.15427734 -10.29052734 6.06787109 C-9.90234375 3.38818359 -9.90234375 3.38818359 -8.80947876 1.7449646 C-5.92413052 -0.30774046 -3.51045142 0.00663205 0 0 Z " fill="#F86491" transform="translate(324.90234375,-0.38818359375)"/>
<path d="M0 0 C10.94220274 4.3768811 20.79190497 11.11071441 31 17 C31 39.11 31 61.22 31 84 C20.77 84 10.54 84 0 84 C0 56.28 0 28.56 0 0 Z " fill="#D5E2F3" transform="translate(385,396)"/>
<path d="M0 0 C3.69601582 0.58078497 6.43707508 1.59059581 9.67578125 3.44921875 C11.02216675 4.21564697 11.02216675 4.21564697 12.39575195 4.99755859 C13.35827881 5.55523926 14.32080566 6.11291992 15.3125 6.6875 C16.32723389 7.26838379 17.34196777 7.84926758 18.38745117 8.44775391 C27.55344319 13.70701053 36.67772419 19.03895619 45.796875 24.37890625 C51.24423697 27.56524706 56.70949473 30.71968291 62.17993164 33.86621094 C66.50422008 36.35435439 70.82370867 38.85074204 75.14208984 41.34912109 C76.93757001 42.38628468 78.73455241 43.42085649 80.53369141 44.45166016 C82.65299401 45.66687106 84.76501418 46.89370783 86.875 48.125 C88.54175781 49.08792969 88.54175781 49.08792969 90.2421875 50.0703125 C93.72707324 52.5087453 96.09752029 55.19504059 98 59 C98.09608608 60.83128771 98.12982579 62.66619959 98.125 64.5 C98.12886719 65.96953125 98.12886719 65.96953125 98.1328125 67.46875 C98 70 98 70 97 72 C91.79673247 71.50521076 88.10526365 69.58396231 83.75 66.875 C82.23396843 65.95815302 80.71697742 65.04289132 79.19921875 64.12890625 C78.37083496 63.62762207 77.54245117 63.12633789 76.68896484 62.60986328 C71.6840163 59.61343776 66.61971433 56.71952149 61.5625 53.8125 C59.32546419 52.5235358 57.08848585 51.23447186 54.8515625 49.9453125 C52.56775983 48.63011891 50.2839054 47.31501519 48 46 C41.32487365 42.15663041 34.65071306 38.31172221 27.984375 34.453125 C24.25653502 32.29615075 20.51869639 30.15960785 16.765625 28.046875 C15.23954967 27.17714239 13.71350545 26.3073552 12.1875 25.4375 C11.518396 25.06842529 10.84929199 24.69935059 10.15991211 24.3190918 C4.89600692 21.29374025 0.95915128 17.87745385 -1 12 C-1.09287771 10.31454276 -1.12997204 8.625507 -1.125 6.9375 C-1.12757813 6.05964844 -1.13015625 5.18179688 -1.1328125 4.27734375 C-1 2 -1 2 0 0 Z " fill="#FEEE89" transform="translate(153,133)"/>
<path d="M0 0 C8.96451601 4.29046567 17.54982929 8.99545427 26.08203125 14.08203125 C31.83363462 17.50869575 37.63569125 20.84677762 43.4375 24.1875 C44.53151123 24.81841553 45.62552246 25.44933105 46.75268555 26.09936523 C51.94831554 29.0947415 57.14642849 32.0856055 62.35099792 35.06541443 C64.11811904 36.07752191 65.88449206 37.09092262 67.65063477 38.10473633 C69.86056123 39.37281506 72.07190003 40.63843694 74.28491211 41.90112305 C93.45578959 52.91157919 93.45578959 52.91157919 97 60 C97.09608608 61.83128771 97.12982579 63.66619959 97.125 65.5 C97.12886719 66.96953125 97.12886719 66.96953125 97.1328125 68.46875 C97 71 97 71 96 73 C91.99837244 72.40978811 89.14707221 71.15443329 85.66796875 69.11328125 C84.63478516 68.51193359 83.60160156 67.91058594 82.53710938 67.29101562 C81.43173828 66.63810547 80.32636719 65.98519531 79.1875 65.3125 C78.02057199 64.63019245 76.8532478 63.94856206 75.68554688 63.26757812 C73.28595951 61.86665869 70.88876622 60.46177647 68.49365234 59.05322266 C64.30755119 56.59151263 60.11213534 54.14586341 55.91650391 51.70043945 C53.96629764 50.56339051 52.01675669 49.42519973 50.06787109 48.28588867 C43.63533027 44.52676992 37.18528944 40.79927858 30.72509766 37.08789062 C26.39900007 34.59956436 22.08054606 32.09817058 17.76318359 29.59472656 C15.3874248 28.22359594 13.00273866 26.87046067 10.61328125 25.5234375 C0.09345639 19.50073299 0.09345639 19.50073299 -2 13 C-2.3762352 9.28918711 -2.52762126 5.69948396 -2 2 C-1.34 1.34 -0.68 0.68 0 0 Z " fill="#FEEF8A" transform="translate(74,271)"/>
<path d="M0 0 C17.34670926 9.88359016 34.64235438 19.85633728 51.875 29.9375 C62.15180313 35.94894985 72.47969004 41.86825323 82.82568359 47.75952148 C84.51105225 48.71967163 84.51105225 48.71967163 86.23046875 49.69921875 C87.22457764 50.26471436 88.21868652 50.83020996 89.24291992 51.4128418 C91.84745622 52.91218568 94.42841026 54.4449556 97 56 C95.53967505 61.31027254 93.01679014 65.46330032 90 70 C86.19037936 68.575794 82.75596032 66.82091117 79.23046875 64.796875 C78.10688965 64.15355225 76.98331055 63.51022949 75.82568359 62.84741211 C74.61288279 62.14840128 73.40015681 61.44926061 72.1875 60.75 C70.92540022 60.0252852 69.66319169 59.30075976 68.40087891 58.57641602 C59.56748143 53.50213956 50.76133852 48.38129234 41.96850586 43.23706055 C33.35885667 38.20071355 24.72184426 33.21278989 16.07763672 28.23608398 C10.85378063 25.22763935 5.63368828 22.2128624 0.421875 19.18359375 C-1.0307373 18.33945923 -1.0307373 18.33945923 -2.51269531 17.47827148 C-4.37433579 16.37184892 -6.19810174 15.2012655 -8 14 C-5.36 9.38 -2.72 4.76 0 0 Z " fill="#FEEE89" transform="translate(115,230)"/>
<path d="M0 0 C0.80179688 0.46148437 1.60359375 0.92296875 2.4296875 1.3984375 C8.33093204 4.78395874 14.24275407 8.14387521 20.20166016 11.42700195 C29.05693091 16.30824365 37.80812466 21.35284282 46.5324707 26.46411133 C54.18886157 30.94925185 61.87050443 35.38873897 69.5625 39.8125 C78.76861022 45.11088271 87.92760268 50.47571847 97 56 C95.6926925 59.43931834 94.18963666 62.61300905 92.375 65.8125 C91.92898437 66.60269531 91.48296875 67.39289063 91.0234375 68.20703125 C90.68570313 68.79871094 90.34796875 69.39039063 90 70 C86.32774624 68.01018849 82.66279845 66.00714697 79 64 C78.37270996 63.65678711 77.74541992 63.31357422 77.09912109 62.95996094 C65.74438422 56.73613014 54.5437587 50.26679692 43.37109375 43.72265625 C37.8969385 40.51829339 32.40676268 37.34255963 26.90966797 34.17773438 C23.62869858 32.28812574 20.35143843 30.39219585 17.07421875 28.49609375 C13.2593588 26.29191244 9.43098378 24.11669402 5.58203125 21.97265625 C4.77757568 21.51793945 3.97312012 21.06322266 3.14428711 20.59472656 C1.676667 19.76546988 0.20254279 18.94757592 -1.27905273 18.14355469 C-3.1953125 17.05078125 -3.1953125 17.05078125 -6 15 C-6 10.57998499 -5.15107686 9.0143845 -3 5.25 C-2.443125 4.26515625 -1.88625 3.2803125 -1.3125 2.265625 C-0.6628125 1.14414063 -0.6628125 1.14414063 0 0 Z " fill="#FEEE88" transform="translate(147,175)"/>
<path d="M0 0 C8.58 0 17.16 0 26 0 C26 21.12 26 42.24 26 64 C22.10704383 62.44281753 20.21007955 61.61268977 17.1875 59.1015625 C16.50429688 58.53953125 15.82109375 57.9775 15.1171875 57.3984375 C14.41851562 56.81320313 13.71984375 56.22796875 13 55.625 C11.60421857 54.47129137 10.20838642 53.3176441 8.8125 52.1640625 C8.20019531 51.65311035 7.58789062 51.1421582 6.95703125 50.61572266 C4.96509209 48.87946293 4.96509209 48.87946293 2.29223633 47.44189453 C-1.29417325 43.62133125 -0.62349435 39.81481176 -0.48828125 34.765625 C-0.48120651 33.77246277 -0.47413177 32.77930054 -0.46684265 31.75604248 C-0.43887288 28.58659267 -0.37612801 25.41891503 -0.3125 22.25 C-0.28742054 20.10028594 -0.26460676 17.95054418 -0.24414062 15.80078125 C-0.19328968 10.53262369 -0.09544009 5.26829303 0 0 Z " fill="#DFF5FC" transform="translate(328,32)"/>
<path d="M0 0 C5.51568187 1.53311285 10.02034852 4.18752444 14.875 7.125 C15.65875 7.59292969 16.4425 8.06085938 17.25 8.54296875 C19.16982472 9.69018108 21.08630561 10.8426007 23 12 C22.45188116 16.83087794 20.17929722 20.44118155 17.6875 24.5 C16.78634917 25.99784977 15.88668169 27.4965927 14.98828125 28.99609375 C14.5082666 29.79515137 14.02825195 30.59420898 13.53369141 31.41748047 C10.75409094 36.09793475 8.06785258 40.83178037 5.375 45.5625 C4.84221436 46.49707031 4.30942871 47.43164062 3.76049805 48.39453125 C2.50601557 50.59579684 1.25249089 52.79760082 0 55 C-5.88598776 52.13712796 -11.58055372 49.16752479 -17.125 45.6875 C-18.24132812 44.99011719 -19.35765625 44.29273438 -20.5078125 43.57421875 C-21.33023438 43.05472656 -22.15265625 42.53523438 -23 42 C-22.39000122 39.17948369 -21.53882473 36.8932319 -20.13671875 34.375 C-19.74983887 33.67745605 -19.36295898 32.97991211 -18.96435547 32.26123047 C-18.54299316 31.51502441 -18.12163086 30.76881836 -17.6875 30 C-17.25324707 29.22414551 -16.81899414 28.44829102 -16.37158203 27.64892578 C-11.11046598 18.31708387 -5.56619706 9.15208476 0 0 Z " fill="#FE905B" transform="translate(213,232)"/>
<path d="M0 0 C2.43801926 1.80817251 4.10049886 3.27906809 6.0625 5.5 C6.54009766 6.0053125 7.01769531 6.510625 7.50976562 7.03125 C9.57973306 9.24216314 11.57948402 11.50824765 13.5478363 13.81004333 C17.77132035 18.73419683 22.25089748 23.2731648 26.9375 27.75390625 C28.42421209 29.1988056 29.90985945 30.64480115 31.39453125 32.09179688 C33.70706839 34.34238665 36.02475897 36.58609399 38.36083984 38.81225586 C40.63417602 40.98281958 42.88117079 43.17790651 45.125 45.37890625 C45.83003662 46.03951553 46.53507324 46.70012482 47.26147461 47.38075256 C51.98391744 52.07483898 51.98391744 52.07483898 52.06640625 56.82006836 C50.75593285 60.72778725 49.6310996 62.06341355 46 64 C41.16914278 63.91961264 38.77516073 62.33959247 35.40884399 58.94967651 C34.8743161 58.38620514 34.33978821 57.82273376 33.7890625 57.2421875 C32.93131729 56.37027267 32.93131729 56.37027267 32.0562439 55.48074341 C30.23362212 53.62364169 28.42889582 51.75027993 26.625 49.875 C24.24684902 47.43032732 21.86216045 44.9920912 19.4765625 42.5546875 C18.9030304 41.96669876 18.32949829 41.37871002 17.73858643 40.77290344 C14.24726514 37.21073152 10.67457202 33.82557646 6.86865234 30.59765625 C3.11624083 27.38942775 -0.44445265 23.98556162 -4 20.5625 C-4.77472656 19.85029297 -5.54945312 19.13808594 -6.34765625 18.40429688 C-12.49310816 12.43768087 -12.49310816 12.43768087 -12.59375 7.62109375 C-12 4 -12 4 -10.5 1.5 C-7.04957071 -0.57025757 -3.8805402 -0.73497157 0 0 Z " fill="#757575" transform="translate(20,296)"/>
<path d="M0 0 C0.66525696 -0.0049649 1.33051392 -0.00992981 2.01593018 -0.01504517 C4.22116118 -0.02967341 6.4263202 -0.03647045 8.6315918 -0.04199219 C10.16375226 -0.04774386 11.6959127 -0.05350159 13.22807312 -0.05926514 C16.44355607 -0.06977753 19.659014 -0.07561838 22.87451172 -0.07910156 C26.99042945 -0.0845816 31.10601558 -0.10859786 35.22182941 -0.13707352 C38.38831032 -0.1557197 41.55471174 -0.16090658 44.7212429 -0.16243744 C46.23827105 -0.16546091 47.75529789 -0.17347917 49.27227211 -0.18662262 C51.39791504 -0.20372238 53.52275325 -0.20179363 55.6484375 -0.1953125 C56.85707962 -0.19895813 58.06572174 -0.20260376 59.31098938 -0.20635986 C62.85396525 0.1995919 64.73647861 0.94979761 67.51831055 3.16113281 C68.46115808 6.61824045 68.8589337 9.01540039 67.83081055 12.47363281 C66.18442091 14.59041949 65.0255591 15.18248125 62.51831055 16.16113281 C59.44470215 16.42855835 59.44470215 16.42855835 55.79370117 16.45166016 C55.12654587 16.45837738 54.45939056 16.4650946 53.77201843 16.47201538 C51.57278951 16.49097057 49.373866 16.49491785 47.17456055 16.49707031 C45.64286169 16.50349855 44.11116406 16.51022693 42.57946777 16.51724243 C39.37171582 16.52920793 36.16407152 16.53292387 32.95629883 16.53173828 C28.84692691 16.5315348 24.73824433 16.5588693 20.62903595 16.5932827 C17.46686635 16.61552073 14.3048637 16.61957684 11.1426239 16.61851883 C9.6275545 16.62087822 8.11248073 16.62972086 6.5974884 16.64518356 C4.47880687 16.66478824 2.36162578 16.65902993 0.24291992 16.64697266 C-0.9619104 16.64982269 -2.16674072 16.65267273 -3.40808105 16.65560913 C-7.09757604 16.06205014 -8.24581354 15.09974947 -10.48168945 12.16113281 C-11.65759919 8.47661563 -11.81650284 6.87859006 -10.16918945 3.34863281 C-7.20652474 -0.49185848 -4.65859283 0.02636994 0 0 Z " fill="#777777" transform="translate(13.481689453125,391.8388671875)"/>
<path d="M0 0 C4.723125 -0.061875 9.44625 -0.12375 14.3125 -0.1875 C15.79919189 -0.21481201 17.28588379 -0.24212402 18.81762695 -0.27026367 C19.98769287 -0.27775635 21.15775879 -0.28524902 22.36328125 -0.29296875 C23.56251221 -0.3086792 24.76174316 -0.32438965 25.99731445 -0.34057617 C29 0 29 0 30.88989258 1.15112305 C32.46886915 3.78089864 32.3886305 5.81895075 32.3984375 8.875 C32.40423828 10.59976562 32.40423828 10.59976562 32.41015625 12.359375 C32.39855469 13.56078125 32.38695312 14.7621875 32.375 16 C32.38660156 17.20140625 32.39820313 18.4028125 32.41015625 19.640625 C32.40628906 20.79046875 32.40242188 21.9403125 32.3984375 23.125 C32.39505371 24.17945313 32.39166992 25.23390625 32.38818359 26.3203125 C32 29 32 29 30.88989258 30.84887695 C28.04215879 32.58341575 25.67276904 32.33632449 22.36328125 32.29296875 C21.19321533 32.28547607 20.02314941 32.2779834 18.81762695 32.27026367 C17.33093506 32.24295166 15.84424316 32.21563965 14.3125 32.1875 C7.2278125 32.0946875 7.2278125 32.0946875 0 32 C0 21.44 0 10.88 0 0 Z " fill="#F93979" transform="translate(416,480)"/>
<path d="M0 0 C6.8371875 -0.0928125 6.8371875 -0.0928125 13.8125 -0.1875 C15.96422729 -0.22846802 15.96422729 -0.22846802 18.15942383 -0.27026367 C19.8536145 -0.28150269 19.8536145 -0.28150269 21.58203125 -0.29296875 C22.73936768 -0.3086792 23.8967041 -0.32438965 25.08911133 -0.34057617 C28 0 28 0 29.83862305 1.33081055 C32.87187565 5.69035397 32.22110469 10.79664993 32.25 15.875 C32.270625 16.77347656 32.29125 17.67195313 32.3125 18.59765625 C32.34187372 23.5691592 32.24103657 26.95688873 29 31 C28 32 28 32 25.31616211 32.11352539 C24.14835205 32.10828857 22.98054199 32.10305176 21.77734375 32.09765625 C20.64288818 32.09515869 19.50843262 32.09266113 18.33959961 32.09008789 C16.1605603 32.07643188 16.1605603 32.07643188 13.9375 32.0625 C7.0384375 32.0315625 7.0384375 32.0315625 0 32 C0 21.44 0 10.88 0 0 Z " fill="#F93A79" transform="translate(362,0)"/>
<path d="M0 0 C4.186875 -0.0825 8.37375 -0.165 12.6875 -0.25 C13.99936279 -0.28641602 15.31122559 -0.32283203 16.6628418 -0.36035156 C17.70609619 -0.3703418 18.74935059 -0.38033203 19.82421875 -0.390625 C20.88729248 -0.41157227 21.95036621 -0.43251953 23.0456543 -0.45410156 C26.84188587 0.12940317 28.43518407 1.15020452 31 4 C31.56762695 7.02441406 31.56762695 7.02441406 31.48828125 10.515625 C31.47579346 11.64258789 31.46330566 12.76955078 31.45043945 13.93066406 C31.40491943 15.35604492 31.35939941 16.78142578 31.3125 18.25 C31.209375 22.7875 31.10625 27.325 31 32 C20.77 32 10.54 32 0 32 C0 21.44 0 10.88 0 0 Z " fill="#FE905A" transform="translate(193,448)"/>
<path d="M0 0 C3.54434427 1.34455698 6.80799193 2.91228344 10.11328125 4.765625 C11.10247559 5.31919678 12.09166992 5.87276855 13.11083984 6.44311523 C14.1673877 7.03938721 15.22393555 7.63565918 16.3125 8.25 C17.41029785 8.8675415 18.5080957 9.48508301 19.63916016 10.12133789 C27.41426 14.50850154 35.15771931 18.94935799 42.875 23.4375 C43.82930908 23.99147461 44.78361816 24.54544922 45.7668457 25.11621094 C50.55482672 27.91545442 55.31040461 30.76613814 60.02734375 33.68359375 C61.36140259 34.50621704 61.36140259 34.50621704 62.72241211 35.34545898 C66.18081623 37.85779736 67.45482565 40.02669452 69 44 C69.0504092 45.66590417 69.05968865 47.3344025 69 49 C57.01390432 43.38679322 45.71935263 36.66366907 34.32617188 29.94970703 C30.87756409 27.92823156 27.41831956 25.92644092 23.953125 23.93359375 C23.37020691 23.59828644 22.78728882 23.26297913 22.18670654 22.91751099 C19.36868137 21.2973453 16.54949412 19.67922251 13.72949219 18.0625 C8.08012764 14.8139821 2.4994698 11.49665808 -3 8 C-1.125 2.25 -1.125 2.25 0 0 Z " fill="#FCAD43" transform="translate(151,168)"/>
<path d="M0 0 C3.40202433 1.28924356 6.50564554 2.7652076 9.64453125 4.6015625 C10.48564453 5.09140625 11.32675781 5.58125 12.19335938 6.0859375 C13.05767578 6.59382813 13.92199219 7.10171875 14.8125 7.625 C15.69615234 8.140625 16.57980469 8.65625 17.49023438 9.1875 C19.66194789 10.45531114 21.8317818 11.72622348 24 13 C20 20 16 27 12 34 C6.92365174 32.2010497 2.36286389 29.50973545 -2.3125 26.875 C-3.14845703 26.40707031 -3.98441406 25.93914062 -4.84570312 25.45703125 C-6.89866233 24.3073741 -8.95002202 23.15496198 -11 22 C-10.49844814 16.67501327 -7.65564273 12.64794605 -4.9375 8.1875 C-4.46505859 7.39923828 -3.99261719 6.61097656 -3.50585938 5.79882812 C-2.34368685 3.86187392 -1.17495583 1.92921705 0 0 Z " fill="#FE905B" transform="translate(181,287)"/>
<path d="M0 0 C4.99970696 1.99988278 9.54403533 4.34921943 14.25 6.9375 C15.07757813 7.38029297 15.90515625 7.82308594 16.7578125 8.27929688 C17.54414063 8.71177734 18.33046875 9.14425781 19.140625 9.58984375 C19.85766602 9.98034912 20.57470703 10.37085449 21.31347656 10.77319336 C23 12 23 12 24 15 C22.56640625 17.91796875 22.56640625 17.91796875 20.5625 21.1875 C19.90378906 22.27417969 19.24507812 23.36085937 18.56640625 24.48046875 C18.04949219 25.31191406 17.53257812 26.14335937 17 27 C16.35675781 26.64808594 15.71351563 26.29617187 15.05078125 25.93359375 C7.7161453 21.92622489 0.36147352 17.95778146 -7 14 C-4.69 9.38 -2.38 4.76 0 0 Z " fill="#FEC372" transform="translate(220,218)"/>
<path d="M0 0 C2.124375 1.216875 4.24875 2.43375 6.4375 3.6875 C11.93567432 6.83306854 17.45020986 9.94614723 23 13 C21.53967505 18.31027254 19.01679014 22.46330032 16 27 C12.59797567 25.71075644 9.49435446 24.2347924 6.35546875 22.3984375 C5.51435547 21.90859375 4.67324219 21.41875 3.80664062 20.9140625 C2.94232422 20.40617187 2.07800781 19.89828125 1.1875 19.375 C0.30384766 18.859375 -0.57980469 18.34375 -1.49023438 17.8125 C-3.66192963 16.54469953 -5.83120567 15.27275663 -8 14 C-5.36 9.38 -2.72 4.76 0 0 Z " fill="#FEC371" transform="translate(189,273)"/>
</svg>
